Coordinates
version=1
nRows=32
nColumns=22
inDegrees=yes

Units are S.I. units (second, meters, Newtons, ...)
If the header above contains a line with 'inDegrees', this indicates whether rotational values are in degrees (yes) or radians (no).

endheader
time	pelvis_tilt	pelvis_list	pelvis_rotation	pelvis_tx	pelvis_ty	pelvis_tz	hip_flexion_r	hip_adduction_r	hip_rotation_r	knee_angle_r	ankle_angle_r	subtalar_angle_r	hip_flexion_l	hip_adduction_l	hip_rotation_l	knee_angle_l	ankle_angle_l	subtalar_angle_l	lumbar_extension	lumbar_bending	lumbar_rotation
      1.52000000	     -9.86823765	      4.06217525	    -10.41117808	     -1.05492355	      0.86965322	     -0.07025404	     12.63808007	    -12.18239173	      7.34336916	    -18.84940564	     18.78715082	      7.27455734	      5.15864407	      1.20746742	    -10.21956410	     -9.50776389	     17.84558516	      4.29538140	      4.07660399	     -4.80705415	     13.50297622
      1.53000000	     -9.64343223	      4.09468478	    -10.24858035	     -1.05299417	      0.86975353	     -0.07207917	     12.96797120	    -12.32322165	      7.40066742	    -20.16713623	     18.85084337	      7.23572336	      4.64038877	      1.46198764	    -10.22761854	     -9.10977165	     17.67570396	      4.56487345	      3.79620161	     -4.95011356	     13.40167519
      1.54000000	     -9.43967310	      4.10768482	    -10.08849736	     -1.05110201	      0.86992041	     -0.07387739	     13.31341573	    -12.42731818	      7.49788798	    -21.46646311	     18.84579850	      7.11951918	      4.12310089	      1.69530788	    -10.26752687	     -8.67075215	     17.46395317	      4.85054184	      3.52357533	     -5.07057210	     13.29902264
      1.55000000	     -9.26850454	      4.10018056	     -9.92574329	     -1.04926001	      0.87013805	     -0.07564728	     13.66621231	    -12.49149480	      7.63853770	    -22.71071646	     18.79211115	      6.90835888	      3.63413774	      1.90249520	    -10.32873707	     -8.21815418	     17.22858233	      5.12780681	      3.27128791	     -5.16568176	     13.19393004
      1.56000000	     -9.13376731	      4.06148534	     -9.75943738	     -1.04744138	      0.87040489	     -0.07736473	     13.99697457	    -12.50460770	      7.80981737	    -23.84705928	     18.69164318	      6.48505696	      3.18477123	      2.06653163	    -10.43254599	     -7.77387919	     17.00150419	      5.45851234	      3.04694575	     -5.22370189	     13.08637302
      1.57000000	     -9.06095254	      4.03668609	     -9.57308481	     -1.04572560	      0.87067037	     -0.07905474	     14.33304262	    -12.51180916	      8.05247369	    -24.85985548	     18.59247537	      6.13823018	      2.83121387	      2.23119505	    -10.49083964	     -7.36767610	     16.73209660	      5.65042096	      2.87797938	     -5.29487258	     12.96588023
      1.58000000	     -9.03596322	      3.98006547	     -9.36982713	     -1.04401401	      0.87095039	     -0.08066285	     14.60907704	    -12.47373764	      8.28451094	    -25.68764066	     18.46985749	      5.48273092	      2.55311793	      2.34071588	    -10.60210808	     -7.01709252	     16.52385336	      5.93086746	      2.75424772	     -5.33107334	     12.83512889
      1.59000000	     -9.07038270	      3.93091885	     -9.13575243	     -1.04237634	      0.87122288	     -0.08219942	     14.83961721	    -12.43389870	      8.54338952	    -26.32067897	     18.34970206	      4.88051419	      2.37794483	      2.43497086	    -10.66731195	     -6.73078924	     16.30050629	      6.16969556	      2.68741423	     -5.38056329	     12.68495629
      1.60000000	     -9.15286089	      3.88940946	     -8.86439405	     -1.04080715	      0.87149021	     -0.08364663	     15.00006877	    -12.40045599	      8.80014904	    -26.74529497	     18.24914477	      4.26232279	      2.30100298	      2.51191277	    -10.68833572	     -6.52469672	     16.08168955	      6.41161275	      2.66431868	     -5.44961137	     12.50725075
      1.61000000	     -9.28284931	      3.83355782	     -8.55560947	     -1.03927872	      0.87174524	     -0.08498918	     15.08626396	    -12.36082384	      8.99133906	    -26.96551073	     18.13391442	      3.61781435	      2.30372630	      2.54885006	    -10.67639897	     -6.37440168	     15.89839640	      6.66419353	      2.68403044	     -5.51311115	     12.30615255
      1.62000000	     -9.43711933	      3.78493153	     -8.21803500	     -1.03778545	      0.87200314	     -0.08620703	     15.08557510	    -12.34071658	      9.13472884	    -27.00087211	     18.02871917	      3.07161063	      2.36384060	      2.57380869	    -10.61842211	     -6.28292590	     15.72751889	      6.89836751	      2.72708108	     -5.60116785	     12.08204314
      1.63000000	     -9.61355363	      3.74337475	     -7.86159484	     -1.03633218	      0.87225763	     -0.08729049	     15.00654464	    -12.34529802	      9.20146402	    -26.86322502	     17.91759384	      2.62876631	      2.46417001	      2.58995836	    -10.52985047	     -6.21847460	     15.56609854	      7.12591977	      2.78758672	     -5.71147742	     11.84920237
      1.64000000	     -9.79639904	      3.70345896	     -7.50188150	     -1.03491545	      0.87252295	     -0.08822223	     14.85945228	    -12.36802136	      9.17575535	    -26.59908627	     17.77606312	      2.32277438	      2.58145165	      2.59678810	    -10.43187829	     -6.17330417	     15.40481164	      7.34420187	      2.84896963	     -5.83769772	     11.62277110
      1.65000000	     -9.98533366	      3.66712532	     -7.15275725	     -1.03355281	      0.87279888	     -0.08899642	     14.66700622	    -12.40975130	      9.05398287	    -26.24092579	     17.56582765	      2.19942733	      2.70940136	      2.59863836	    -10.33958430	     -6.13146393	     15.22726718	      7.51857084	      2.90648305	     -5.97677119	     11.38992881
      1.66000000	    -10.17237117	      3.62004020	     -6.81218088	     -1.03221980	      0.87309254	     -0.08962156	     14.41256748	    -12.45617703	      8.82228792	    -25.78225067	     17.33107667	      2.19423467	      2.84321356	      2.58154273	    -10.23770051	     -6.11148776	     15.07107725	      7.71446650	      2.95375133	     -6.11228301	     11.17941968
      1.67000000	    -10.36160732	      3.55793707	     -6.49228955	     -1.03093202	      0.87340341	     -0.09009550	     14.12394120	    -12.49898776	      8.47914578	    -25.25486831	     17.02714910	      2.37844030	      2.98224403	      2.54234551	    -10.13920850	     -6.10104077	     14.91010902	      7.89999578	      2.99091494	     -6.23182958	     10.97599138
      1.68000000	    -10.53567233	      3.48919395	     -6.21295625	     -1.02968328	      0.87374532	     -0.09039894	     13.79983083	    -12.54337701	      8.06434201	    -24.67444466	     16.68423143	      3.00707590	      3.11816088	      2.48998065	    -10.07730003	     -6.12231495	     14.74606664	      8.09636560	      3.00486200	     -6.34591283	     10.79601767
      1.69000000	    -10.76307434	      3.39872568	     -5.94874408	     -1.02852290	      0.87402391	     -0.09059507	     13.53161148	    -12.56612376	      7.54207286	    -24.07967288	     16.27299327	      3.75826771	      3.32613024	      2.40458862	     -9.98188774	     -6.17296825	     14.59346879	      8.11571567	      3.06702938	     -6.42413677	     10.61933176
      1.70000000	    -11.02514247	      3.28762883	     -5.71769542	     -1.02745461	      0.87426068	     -0.09063652	     13.31593364	    -12.55985701	      6.96458906	    -23.48536167	     15.81283234	      4.67875679	      3.60270460	      2.28097454	     -9.87240873	     -6.29025400	     14.45282478	      8.03309972	      3.16141476	     -6.47409778	     10.45906911
      1.71000000	    -11.33369969	      3.14637790	     -5.51334483	     -1.02650633	      0.87442725	     -0.09055779	     13.18097758	    -12.50974088	      6.36106850	    -22.92203547	     15.31791018	      5.72344046	      3.97049322	      2.10810923	     -9.72409480	     -6.48886659	     14.35096963	      7.84728087	      3.29700808	     -6.48076928	     10.30914703
      1.72000000	    -11.68963391	      2.96312894	     -5.32558015	     -1.02568891	      0.87451186	     -0.09038177	     13.13480848	    -12.39957024	      5.76856042	    -22.40701836	     14.80730002	      6.77696963	      4.44559058	      1.87042534	     -9.51764138	     -6.79776674	     14.31110627	      7.57662632	      3.47225383	     -6.43074712	     10.15690177
      1.73000000	    -12.08403789	      2.73238742	     -5.15420925	     -1.02501115	      0.87451175	     -0.09013073	     13.18559636	    -12.22097052	      5.23422429	    -21.97218740	     14.28785722	      7.78910002	      5.02794858	      1.56196229	     -9.24072282	     -7.23278430	     14.35061081	      7.24100270	      3.67613296	     -6.31681426	      9.99836274
      1.74000000	    -12.50265806	      2.44093580	     -4.99391114	     -1.02446089	      0.87443201	     -0.08984234	     13.32649522	    -11.96134772	      4.79475957	    -21.63993339	     13.76788496	      8.71193715	      5.70106486	      1.17302743	     -8.88049897	     -7.79068209	     14.48405970	      6.86314251	      3.89148785	     -6.12272995	      9.83108963
      1.75000000	    -12.92364775	      2.09069978	     -4.83028789	     -1.02405538	      0.87427462	     -0.08958332	     13.55511257	    -11.63068858	      4.46464775	    -21.45536233	     13.26772694	      9.48901412	      6.46742634	      0.71112892	     -8.44544353	     -8.51401368	     14.73541186	      6.47103444	      4.08551442	     -5.84931112	      9.63288010
      1.76000000	    -13.31738543	      1.67029027	     -4.67455514	     -1.02374900	      0.87407596	     -0.08936663	     13.85347581	    -11.21764356	      4.28194876	    -21.44473466	     12.76999626	     10.17940509	      7.25652914	      0.17563773	     -7.92059951	     -9.32980323	     15.08410857	      6.05540319	      4.23003255	     -5.48255966	      9.42084744
      1.77000000	    -13.65729476	      1.18084539	     -4.51612745	     -1.02350540	      0.87386025	     -0.08925824	     14.19986528	    -10.73213748	      4.22839676	    -21.62900896	     12.29000626	     10.76674442	      8.04039915	     -0.42030104	     -7.32881731	    -10.23827367	     15.52267708	      5.62728987	      4.29421370	     -5.02097371	      9.18289861
      1.78000000	    -13.91720625	      0.63282643	     -4.36088250	     -1.02327654	      0.87365835	     -0.08927702	     14.58669379	    -10.18518552	      4.30744640	    -22.04415246	     11.79122159	     11.29673514	      8.76570735	     -1.05523751	     -6.68936982	    -11.19263245	     16.03109663	      5.16704343	      4.25599786	     -4.47756938	      8.92997941
      1.79000000	    -14.07702540	      0.03528818	     -4.21398047	     -1.02304338	      0.87350044	     -0.08944560	     15.01427694	     -9.58433883	      4.49972602	    -22.72333684	     11.27989606	     11.78529951	      9.39140854	     -1.71188399	     -6.02854796	    -12.15886624	     16.60709775	      4.66474232	      4.09287195	     -3.86104322	      8.67508400
      1.80000000	    -14.12381183	     -0.59674971	     -4.07900438	     -1.02278638	      0.87340970	     -0.08978478	     15.49301669	     -8.93980682	      4.78588895	    -23.70469390	     10.72889830	     12.22609901	      9.88974598	     -2.36978579	     -5.38446993	    -13.11375139	     17.22690831	      4.13274377	      3.79280426	     -3.18740958	      8.42171323
      1.81000000	    -14.06690709	     -1.22594529	     -3.96590447	     -1.02251524	      0.87337235	     -0.09028377	     16.07342020	     -8.27942390	      5.15623324	    -25.04361959	     10.13114718	     12.67958253	     10.25524607	     -2.99096785	     -4.79214156	    -14.02869801	     17.88788047	      3.51409266	      3.37040768	     -2.49858194	      8.17638818
      1.82000000	    -13.90581862	     -1.86786928	     -3.88386036	     -1.02219422	      0.87342426	     -0.09089171	     16.76275449	     -7.57259659	      5.57026291	    -26.74789693	      9.40403797	     13.06803585	     10.46701724	     -3.60130878	     -4.28513593	    -14.87755670	     18.53744955	      2.91405694	      2.82814127	     -1.78309144	      7.95312170
      1.83000000	    -13.65987124	     -2.45041356	     -3.83726999	     -1.02187572	      0.87351787	     -0.09162524	     17.62138350	     -6.89061491	      6.02576468	    -28.85790724	      8.56373106	     13.49617485	     10.55739678	     -4.12409341	     -3.85081338	    -15.67922045	     19.20639619	      2.20037252	      2.18685181	     -1.12319450	      7.77930000
